<svg xmlns="http://www.w3.org/2000/svg" viewBox="0 0 720 300" role="img" aria-labelledby="title desc"><title id="title">Eşit paylaşma</title><desc id="desc">Görselde 18 düğme iki eş kutuya paylaştırılıyor. Her kutuya kaç düğme konur?</desc><style>.title{font:700 24px Arial,sans-serif;fill:#1E3A8A}.label{font:600 15px Arial,sans-serif;fill:#334155}.small{font:500 14px Arial,sans-serif;fill:#475569}.value{font:700 17px Arial,sans-serif;fill:#1E293B}.coin{font:700 18px Arial,sans-serif;fill:#92400E}.equation{font:700 36px Arial,sans-serif;fill:#1E3A8A}</style><rect width="720" height="300" rx="24" fill="#F8FAFC"/><rect x="18" y="18" width="684" height="264" rx="20" fill="#fff" stroke="#DBEAFE" stroke-width="3"/><text x="360" y="65" text-anchor="middle" class="title">Eşit paylaşma</text><circle cx="70" cy="120" r="8" fill="#2563EB"/><circle cx="94" cy="120" r="8" fill="#2563EB"/><circle cx="118" cy="120" r="8" fill="#2563EB"/><circle cx="142" cy="120" r="8" fill="#2563EB"/><circle cx="166" cy="120" r="8" fill="#2563EB"/><circle cx="190" cy="120" r="8" fill="#2563EB"/><circle cx="70" cy="144" r="8" fill="#2563EB"/><circle cx="94" cy="144" r="8" fill="#2563EB"/><circle cx="118" cy="144" r="8" fill="#2563EB"/><text x="125" y="215" text-anchor="middle" class="label">1. kutu: 9</text><circle cx="360" cy="120" r="8" fill="#F59E0B"/><circle cx="384" cy="120" r="8" fill="#F59E0B"/><circle cx="408" cy="120" r="8" fill="#F59E0B"/><circle cx="432" cy="120" r="8" fill="#F59E0B"/><circle cx="456" cy="120" r="8" fill="#F59E0B"/><circle cx="480" cy="120" r="8" fill="#F59E0B"/><circle cx="360" cy="144" r="8" fill="#F59E0B"/><circle cx="384" cy="144" r="8" fill="#F59E0B"/><circle cx="408" cy="144" r="8" fill="#F59E0B"/><text x="415" y="215" text-anchor="middle" class="label">2. kutu: 9</text></svg>