<svg xmlns="http://www.w3.org/2000/svg" viewBox="0 0 720 300" role="img" aria-labelledby="title desc"><title id="title">Ritmik sayma</title><desc id="desc">Sayı yolunda 25den başlayıp 5şer ilerleyen çocuk 25, 30, 35 sayılarını söylüyor. Sıradaki sayı kaçtır?</desc><style>.title{font:700 24px Arial,sans-serif;fill:#1E3A8A}.label{font:600 15px Arial,sans-serif;fill:#334155}.small{font:500 14px Arial,sans-serif;fill:#475569}.value{font:700 17px Arial,sans-serif;fill:#1E293B}.coin{font:700 18px Arial,sans-serif;fill:#92400E}.equation{font:700 36px Arial,sans-serif;fill:#1E3A8A}</style><rect width="720" height="300" rx="24" fill="#F8FAFC"/><rect x="18" y="18" width="684" height="264" rx="20" fill="#fff" stroke="#DBEAFE" stroke-width="3"/><text x="360" y="65" text-anchor="middle" class="title">Ritmik sayma</text><line x1="75" y1="175" x2="645" y2="175" stroke="#334155" stroke-width="4"/><line x1="75" y1="165" x2="75" y2="185" stroke="#334155" stroke-width="2"/><text x="75" y="210" text-anchor="middle" class="small">25</text><line x1="103.5" y1="165" x2="103.5" y2="185" stroke="#334155" stroke-width="2"/><text x="103.5" y="210" text-anchor="middle" class="small">26</text><line x1="132" y1="165" x2="132" y2="185" stroke="#334155" stroke-width="2"/><text x="132" y="210" text-anchor="middle" class="small">27</text><line x1="160.5" y1="165" x2="160.5" y2="185" stroke="#334155" stroke-width="2"/><text x="160.5" y="210" text-anchor="middle" class="small">28</text><line x1="189" y1="165" x2="189" y2="185" stroke="#334155" stroke-width="2"/><text x="189" y="210" text-anchor="middle" class="small">29</text><line x1="217.5" y1="165" x2="217.5" y2="185" stroke="#334155" stroke-width="2"/><text x="217.5" y="210" text-anchor="middle" class="small">30</text><line x1="246" y1="165" x2="246" y2="185" stroke="#334155" stroke-width="2"/><text x="246" y="210" text-anchor="middle" class="small">31</text><line x1="274.5" y1="165" x2="274.5" y2="185" stroke="#334155" stroke-width="2"/><text x="274.5" y="210" text-anchor="middle" class="small">32</text><line x1="303" y1="165" x2="303" y2="185" stroke="#334155" stroke-width="2"/><text x="303" y="210" text-anchor="middle" class="small">33</text><line x1="331.5" y1="165" x2="331.5" y2="185" stroke="#334155" stroke-width="2"/><text x="331.5" y="210" text-anchor="middle" class="small">34</text><line x1="360" y1="165" x2="360" y2="185" stroke="#334155" stroke-width="2"/><text x="360" y="210" text-anchor="middle" class="small">35</text><line x1="388.5" y1="165" x2="388.5" y2="185" stroke="#334155" stroke-width="2"/><text x="388.5" y="210" text-anchor="middle" class="small">36</text><line x1="417" y1="165" x2="417" y2="185" stroke="#334155" stroke-width="2"/><text x="417" y="210" text-anchor="middle" class="small">37</text><line x1="445.5" y1="165" x2="445.5" y2="185" stroke="#334155" stroke-width="2"/><text x="445.5" y="210" text-anchor="middle" class="small">38</text><line x1="474" y1="165" x2="474" y2="185" stroke="#334155" stroke-width="2"/><text x="474" y="210" text-anchor="middle" class="small">39</text><line x1="502.5" y1="165" x2="502.5" y2="185" stroke="#334155" stroke-width="2"/><text x="502.5" y="210" text-anchor="middle" class="small">40</text><line x1="531" y1="165" x2="531" y2="185" stroke="#334155" stroke-width="2"/><text x="531" y="210" text-anchor="middle" class="small">41</text><line x1="559.5" y1="165" x2="559.5" y2="185" stroke="#334155" stroke-width="2"/><text x="559.5" y="210" text-anchor="middle" class="small">42</text><line x1="588" y1="165" x2="588" y2="185" stroke="#334155" stroke-width="2"/><text x="588" y="210" text-anchor="middle" class="small">43</text><line x1="616.5" y1="165" x2="616.5" y2="185" stroke="#334155" stroke-width="2"/><text x="616.5" y="210" text-anchor="middle" class="small">44</text><line x1="645" y1="165" x2="645" y2="185" stroke="#334155" stroke-width="2"/><text x="645" y="210" text-anchor="middle" class="small">45</text><circle cx="75" cy="150" r="10" fill="#2563EB"/><circle cx="217.5" cy="150" r="10" fill="#F59E0B"/><circle cx="360" cy="150" r="10" fill="#10B981"/><circle cx="502.5" cy="150" r="10" fill="#EF4444"/></svg>