<svg xmlns="http://www.w3.org/2000/svg" viewBox="0 0 720 300" role="img" aria-labelledby="title desc"><title id="title">Toplam köşe sayısı</title><desc id="desc">Görselde 4 kare, 3 üçgen ve 1 çember vardır. Bu şekillerin toplam köşe sayısı kaçtır?</desc><style>.title{font:700 24px Arial,sans-serif;fill:#1E3A8A}.label{font:600 15px Arial,sans-serif;fill:#334155}.small{font:500 14px Arial,sans-serif;fill:#475569}.value{font:700 17px Arial,sans-serif;fill:#1E293B}.coin{font:700 18px Arial,sans-serif;fill:#92400E}.equation{font:700 36px Arial,sans-serif;fill:#1E3A8A}</style><rect width="720" height="300" rx="24" fill="#F8FAFC"/><rect x="18" y="18" width="684" height="264" rx="20" fill="#fff" stroke="#DBEAFE" stroke-width="3"/><text x="360" y="65" text-anchor="middle" class="title">Toplam köşe sayısı</text><rect x="55" y="125" width="60" height="60" rx="8" fill="#2563EB" transform="rotate(0 85 155)"/><rect x="133.57142857142856" y="125" width="60" height="60" rx="8" fill="#F59E0B" transform="rotate(0 163.57142857142856 155)"/><rect x="212.14285714285714" y="125" width="60" height="60" rx="8" fill="#10B981" transform="rotate(0 242.14285714285714 155)"/><rect x="290.7142857142857" y="125" width="60" height="60" rx="8" fill="#EF4444" transform="rotate(0 320.7142857142857 155)"/><polygon points="399.2857142857143,125 369.2857142857143,185 429.2857142857143,185" fill="#8B5CF6" transform="rotate(0 399.2857142857143 155)"/><polygon points="477.85714285714283,125 447.85714285714283,185 507.85714285714283,185" fill="#2563EB" transform="rotate(0 477.85714285714283 155)"/><polygon points="556.4285714285714,125 526.4285714285714,185 586.4285714285714,185" fill="#F59E0B" transform="rotate(0 556.4285714285714 155)"/><circle cx="635" cy="155" r="30" fill="#10B981"/></svg>