<svg xmlns="http://www.w3.org/2000/svg" viewBox="0 0 720 300" role="img" aria-labelledby="title desc"><title id="title">Ritmik sayma</title><desc id="desc">3. sınıf zor: 338den başlayıp 40er sayarken sıradaki sayı kaçtır: 338, 378, 418, ?</desc><style>.title{font:700 24px Arial,sans-serif;fill:#1E3A8A}.label{font:600 15px Arial,sans-serif;fill:#334155}.small{font:500 14px Arial,sans-serif;fill:#475569}.value{font:700 17px Arial,sans-serif;fill:#1E293B}.coin{font:700 18px Arial,sans-serif;fill:#92400E}.equation{font:700 36px Arial,sans-serif;fill:#1E3A8A}</style><rect width="720" height="300" rx="24" fill="#F8FAFC"/><rect x="18" y="18" width="684" height="264" rx="20" fill="#fff" stroke="#DBEAFE" stroke-width="3"/><text x="360" y="65" text-anchor="middle" class="title">Ritmik sayma</text><line x1="75" y1="175" x2="645" y2="175" stroke="#334155" stroke-width="4"/><line x1="75" y1="165" x2="75" y2="185" stroke="#334155" stroke-width="2"/><text x="75" y="210" text-anchor="middle" class="small">338</text><line x1="78.5625" y1="165" x2="78.5625" y2="185" stroke="#334155" stroke-width="2"/><text x="78.5625" y="210" text-anchor="middle" class="small">339</text><line x1="82.125" y1="165" x2="82.125" y2="185" stroke="#334155" stroke-width="2"/><text x="82.125" y="210" text-anchor="middle" class="small">340</text><line x1="85.6875" y1="165" x2="85.6875" y2="185" stroke="#334155" stroke-width="2"/><text x="85.6875" y="210" text-anchor="middle" class="small">341</text><line x1="89.25" y1="165" x2="89.25" y2="185" stroke="#334155" stroke-width="2"/><text x="89.25" y="210" text-anchor="middle" class="small">342</text><line x1="92.8125" y1="165" x2="92.8125" y2="185" stroke="#334155" stroke-width="2"/><text x="92.8125" y="210" text-anchor="middle" class="small">343</text><line x1="96.375" y1="165" x2="96.375" y2="185" stroke="#334155" stroke-width="2"/><text x="96.375" y="210" text-anchor="middle" class="small">344</text><line x1="99.9375" y1="165" x2="99.9375" y2="185" stroke="#334155" stroke-width="2"/><text x="99.9375" y="210" text-anchor="middle" class="small">345</text><line x1="103.5" y1="165" x2="103.5" y2="185" stroke="#334155" stroke-width="2"/><text x="103.5" y="210" text-anchor="middle" class="small">346</text><line x1="107.0625" y1="165" x2="107.0625" y2="185" stroke="#334155" stroke-width="2"/><text x="107.0625" y="210" text-anchor="middle" class="small">347</text><line x1="110.625" y1="165" x2="110.625" y2="185" stroke="#334155" stroke-width="2"/><text x="110.625" y="210" text-anchor="middle" class="small">348</text><line x1="114.1875" y1="165" x2="114.1875" y2="185" stroke="#334155" stroke-width="2"/><text x="114.1875" y="210" text-anchor="middle" class="small">349</text><line x1="117.75" y1="165" x2="117.75" y2="185" stroke="#334155" stroke-width="2"/><text x="117.75" y="210" text-anchor="middle" class="small">350</text><line x1="121.3125" y1="165" x2="121.3125" y2="185" stroke="#334155" stroke-width="2"/><text x="121.3125" y="210" text-anchor="middle" class="small">351</text><line x1="124.875" y1="165" x2="124.875" y2="185" stroke="#334155" stroke-width="2"/><text x="124.875" y="210" text-anchor="middle" class="small">352</text><line x1="128.4375" y1="165" x2="128.4375" y2="185" stroke="#334155" stroke-width="2"/><text x="128.4375" y="210" text-anchor="middle" class="small">353</text><line x1="132" y1="165" x2="132" y2="185" stroke="#334155" stroke-width="2"/><text x="132" y="210" text-anchor="middle" class="small">354</text><line x1="135.5625" y1="165" x2="135.5625" y2="185" stroke="#334155" stroke-width="2"/><text x="135.5625" y="210" text-anchor="middle" class="small">355</text><line x1="139.125" y1="165" x2="139.125" y2="185" stroke="#334155" stroke-width="2"/><text x="139.125" y="210" text-anchor="middle" class="small">356</text><line x1="142.6875" y1="165" x2="142.6875" y2="185" stroke="#334155" stroke-width="2"/><text x="142.6875" y="210" text-anchor="middle" class="small">357</text><line x1="146.25" y1="165" x2="146.25" y2="185" stroke="#334155" stroke-width="2"/><text x="146.25" y="210" text-anchor="middle" class="small">358</text><line x1="149.8125" y1="165" x2="149.8125" y2="185" stroke="#334155" stroke-width="2"/><text x="149.8125" y="210" text-anchor="middle" class="small">359</text><line x1="153.375" y1="165" x2="153.375" y2="185" stroke="#334155" stroke-width="2"/><text x="153.375" y="210" text-anchor="middle" class="small">360</text><line x1="156.9375" y1="165" x2="156.9375" y2="185" stroke="#334155" stroke-width="2"/><text x="156.9375" y="210" text-anchor="middle" class="small">361</text><line x1="160.5" y1="165" x2="160.5" y2="185" stroke="#334155" stroke-width="2"/><text x="160.5" y="210" text-anchor="middle" class="small">362</text><line x1="164.0625" y1="165" x2="164.0625" y2="185" stroke="#334155" stroke-width="2"/><text x="164.0625" y="210" text-anchor="middle" class="small">363</text><line x1="167.625" y1="165" x2="167.625" y2="185" stroke="#334155" stroke-width="2"/><text x="167.625" y="210" text-anchor="middle" class="small">364</text><line x1="171.1875" y1="165" x2="171.1875" y2="185" stroke="#334155" stroke-width="2"/><text x="171.1875" y="210" text-anchor="middle" class="small">365</text><line x1="174.75" y1="165" x2="174.75" y2="185" stroke="#334155" stroke-width="2"/><text x="174.75" y="210" text-anchor="middle" class="small">366</text><line x1="178.3125" y1="165" x2="178.3125" y2="185" stroke="#334155" stroke-width="2"/><text x="178.3125" y="210" text-anchor="middle" class="small">367</text><line x1="181.875" y1="165" x2="181.875" y2="185" stroke="#334155" stroke-width="2"/><text x="181.875" y="210" text-anchor="middle" class="small">368</text><line x1="185.4375" y1="165" x2="185.4375" y2="185" stroke="#334155" stroke-width="2"/><text x="185.4375" y="210" text-anchor="middle" class="small">369</text><line x1="189" y1="165" x2="189" y2="185" stroke="#334155" stroke-width="2"/><text x="189" y="210" text-anchor="middle" class="small">370</text><line x1="192.5625" y1="165" x2="192.5625" y2="185" stroke="#334155" stroke-width="2"/><text x="192.5625" y="210" text-anchor="middle" class="small">371</text><line x1="196.125" y1="165" x2="196.125" y2="185" stroke="#334155" stroke-width="2"/><text x="196.125" y="210" text-anchor="middle" class="small">372</text><line x1="199.6875" y1="165" x2="199.6875" y2="185" stroke="#334155" stroke-width="2"/><text x="199.6875" y="210" text-anchor="middle" class="small">373</text><line x1="203.25" y1="165" x2="203.25" y2="185" stroke="#334155" stroke-width="2"/><text x="203.25" y="210" text-anchor="middle" class="small">374</text><line x1="206.8125" y1="165" x2="206.8125" y2="185" stroke="#334155" stroke-width="2"/><text x="206.8125" y="210" text-anchor="middle" class="small">375</text><line x1="210.375" y1="165" x2="210.375" y2="185" stroke="#334155" stroke-width="2"/><text x="210.375" y="210" text-anchor="middle" class="small">376</text><line x1="213.9375" y1="165" x2="213.9375" y2="185" stroke="#334155" stroke-width="2"/><text x="213.9375" y="210" text-anchor="middle" class="small">377</text><line x1="217.5" y1="165" x2="217.5" y2="185" stroke="#334155" stroke-width="2"/><text x="217.5" y="210" text-anchor="middle" class="small">378</text><line x1="221.0625" y1="165" x2="221.0625" y2="185" stroke="#334155" stroke-width="2"/><text x="221.0625" y="210" text-anchor="middle" class="small">379</text><line x1="224.625" y1="165" x2="224.625" y2="185" stroke="#334155" stroke-width="2"/><text x="224.625" y="210" text-anchor="middle" class="small">380</text><line x1="228.1875" y1="165" x2="228.1875" y2="185" stroke="#334155" stroke-width="2"/><text x="228.1875" y="210" text-anchor="middle" class="small">381</text><line x1="231.75" y1="165" x2="231.75" y2="185" stroke="#334155" stroke-width="2"/><text x="231.75" y="210" text-anchor="middle" class="small">382</text><line x1="235.3125" y1="165" x2="235.3125" y2="185" stroke="#334155" stroke-width="2"/><text x="235.3125" y="210" text-anchor="middle" class="small">383</text><line x1="238.875" y1="165" x2="238.875" y2="185" stroke="#334155" stroke-width="2"/><text x="238.875" y="210" text-anchor="middle" class="small">384</text><line x1="242.4375" y1="165" x2="242.4375" y2="185" stroke="#334155" stroke-width="2"/><text x="242.4375" y="210" text-anchor="middle" class="small">385</text><line x1="246" y1="165" x2="246" y2="185" stroke="#334155" stroke-width="2"/><text x="246" y="210" text-anchor="middle" class="small">386</text><line x1="249.5625" y1="165" x2="249.5625" y2="185" stroke="#334155" stroke-width="2"/><text x="249.5625" y="210" text-anchor="middle" class="small">387</text><line x1="253.125" y1="165" x2="253.125" y2="185" stroke="#334155" stroke-width="2"/><text x="253.125" y="210" text-anchor="middle" class="small">388</text><line x1="256.6875" y1="165" x2="256.6875" y2="185" stroke="#334155" stroke-width="2"/><text x="256.6875" y="210" text-anchor="middle" class="small">389</text><line x1="260.25" y1="165" x2="260.25" y2="185" stroke="#334155" stroke-width="2"/><text x="260.25" y="210" text-anchor="middle" class="small">390</text><line x1="263.8125" y1="165" x2="263.8125" y2="185" stroke="#334155" stroke-width="2"/><text x="263.8125" y="210" text-anchor="middle" class="small">391</text><line x1="267.375" y1="165" x2="267.375" y2="185" stroke="#334155" stroke-width="2"/><text x="267.375" y="210" text-anchor="middle" class="small">392</text><line x1="270.9375" y1="165" x2="270.9375" y2="185" stroke="#334155" stroke-width="2"/><text x="270.9375" y="210" text-anchor="middle" class="small">393</text><line x1="274.5" y1="165" x2="274.5" y2="185" stroke="#334155" stroke-width="2"/><text x="274.5" y="210" text-anchor="middle" class="small">394</text><line x1="278.0625" y1="165" x2="278.0625" y2="185" stroke="#334155" stroke-width="2"/><text x="278.0625" y="210" text-anchor="middle" class="small">395</text><line x1="281.625" y1="165" x2="281.625" y2="185" stroke="#334155" stroke-width="2"/><text x="281.625" y="210" text-anchor="middle" class="small">396</text><line x1="285.1875" y1="165" x2="285.1875" y2="185" stroke="#334155" stroke-width="2"/><text x="285.1875" y="210" text-anchor="middle" class="small">397</text><line x1="288.75" y1="165" x2="288.75" y2="185" stroke="#334155" stroke-width="2"/><text x="288.75" y="210" text-anchor="middle" class="small">398</text><line x1="292.3125" y1="165" x2="292.3125" y2="185" stroke="#334155" stroke-width="2"/><text x="292.3125" y="210" text-anchor="middle" class="small">399</text><line x1="295.875" y1="165" x2="295.875" y2="185" stroke="#334155" stroke-width="2"/><text x="295.875" y="210" text-anchor="middle" class="small">400</text><line x1="299.4375" y1="165" x2="299.4375" y2="185" stroke="#334155" stroke-width="2"/><text x="299.4375" y="210" text-anchor="middle" class="small">401</text><line x1="303" y1="165" x2="303" y2="185" stroke="#334155" stroke-width="2"/><text x="303" y="210" text-anchor="middle" class="small">402</text><line x1="306.5625" y1="165" x2="306.5625" y2="185" stroke="#334155" stroke-width="2"/><text x="306.5625" y="210" text-anchor="middle" class="small">403</text><line x1="310.125" y1="165" x2="310.125" y2="185" stroke="#334155" stroke-width="2"/><text x="310.125" y="210" text-anchor="middle" class="small">404</text><line x1="313.6875" y1="165" x2="313.6875" y2="185" stroke="#334155" stroke-width="2"/><text x="313.6875" y="210" text-anchor="middle" class="small">405</text><line x1="317.25" y1="165" x2="317.25" y2="185" stroke="#334155" stroke-width="2"/><text x="317.25" y="210" text-anchor="middle" class="small">406</text><line x1="320.8125" y1="165" x2="320.8125" y2="185" stroke="#334155" stroke-width="2"/><text x="320.8125" y="210" text-anchor="middle" class="small">407</text><line x1="324.375" y1="165" x2="324.375" y2="185" stroke="#334155" stroke-width="2"/><text x="324.375" y="210" text-anchor="middle" class="small">408</text><line x1="327.9375" y1="165" x2="327.9375" y2="185" stroke="#334155" stroke-width="2"/><text x="327.9375" y="210" text-anchor="middle" class="small">409</text><line x1="331.5" y1="165" x2="331.5" y2="185" stroke="#334155" stroke-width="2"/><text x="331.5" y="210" text-anchor="middle" class="small">410</text><line x1="335.0625" y1="165" x2="335.0625" y2="185" stroke="#334155" stroke-width="2"/><text x="335.0625" y="210" text-anchor="middle" class="small">411</text><line x1="338.625" y1="165" x2="338.625" y2="185" stroke="#334155" stroke-width="2"/><text x="338.625" y="210" text-anchor="middle" class="small">412</text><line x1="342.1875" y1="165" x2="342.1875" y2="185" stroke="#334155" stroke-width="2"/><text x="342.1875" y="210" text-anchor="middle" class="small">413</text><line x1="345.75" y1="165" x2="345.75" y2="185" stroke="#334155" stroke-width="2"/><text x="345.75" y="210" text-anchor="middle" class="small">414</text><line x1="349.3125" y1="165" x2="349.3125" y2="185" stroke="#334155" stroke-width="2"/><text x="349.3125" y="210" text-anchor="middle" class="small">415</text><line x1="352.875" y1="165" x2="352.875" y2="185" stroke="#334155" stroke-width="2"/><text x="352.875" y="210" text-anchor="middle" class="small">416</text><line x1="356.4375" y1="165" x2="356.4375" y2="185" stroke="#334155" stroke-width="2"/><text x="356.4375" y="210" text-anchor="middle" class="small">417</text><line x1="360" y1="165" x2="360" y2="185" stroke="#334155" stroke-width="2"/><text x="360" y="210" text-anchor="middle" class="small">418</text><line x1="363.5625" y1="165" x2="363.5625" y2="185" stroke="#334155" stroke-width="2"/><text x="363.5625" y="210" text-anchor="middle" class="small">419</text><line x1="367.125" y1="165" x2="367.125" y2="185" stroke="#334155" stroke-width="2"/><text x="367.125" y="210" text-anchor="middle" class="small">420</text><line x1="370.6875" y1="165" x2="370.6875" y2="185" stroke="#334155" stroke-width="2"/><text x="370.6875" y="210" text-anchor="middle" class="small">421</text><line x1="374.25" y1="165" x2="374.25" y2="185" stroke="#334155" stroke-width="2"/><text x="374.25" y="210" text-anchor="middle" class="small">422</text><line x1="377.8125" y1="165" x2="377.8125" y2="185" stroke="#334155" stroke-width="2"/><text x="377.8125" y="210" text-anchor="middle" class="small">423</text><line x1="381.375" y1="165" x2="381.375" y2="185" stroke="#334155" stroke-width="2"/><text x="381.375" y="210" text-anchor="middle" class="small">424</text><line x1="384.9375" y1="165" x2="384.9375" y2="185" stroke="#334155" stroke-width="2"/><text x="384.9375" y="210" text-anchor="middle" class="small">425</text><line x1="388.5" y1="165" x2="388.5" y2="185" stroke="#334155" stroke-width="2"/><text x="388.5" y="210" text-anchor="middle" class="small">426</text><line x1="392.0625" y1="165" x2="392.0625" y2="185" stroke="#334155" stroke-width="2"/><text x="392.0625" y="210" text-anchor="middle" class="small">427</text><line x1="395.625" y1="165" x2="395.625" y2="185" stroke="#334155" stroke-width="2"/><text x="395.625" y="210" text-anchor="middle" class="small">428</text><line x1="399.1875" y1="165" x2="399.1875" y2="185" stroke="#334155" stroke-width="2"/><text x="399.1875" y="210" text-anchor="middle" class="small">429</text><line x1="402.75" y1="165" x2="402.75" y2="185" stroke="#334155" stroke-width="2"/><text x="402.75" y="210" text-anchor="middle" class="small">430</text><line x1="406.3125" y1="165" x2="406.3125" y2="185" stroke="#334155" stroke-width="2"/><text x="406.3125" y="210" text-anchor="middle" class="small">431</text><line x1="409.875" y1="165" x2="409.875" y2="185" stroke="#334155" stroke-width="2"/><text x="409.875" y="210" text-anchor="middle" class="small">432</text><line x1="413.4375" y1="165" x2="413.4375" y2="185" stroke="#334155" stroke-width="2"/><text x="413.4375" y="210" text-anchor="middle" class="small">433</text><line x1="417" y1="165" x2="417" y2="185" stroke="#334155" stroke-width="2"/><text x="417" y="210" text-anchor="middle" class="small">434</text><line x1="420.5625" y1="165" x2="420.5625" y2="185" stroke="#334155" stroke-width="2"/><text x="420.5625" y="210" text-anchor="middle" class="small">435</text><line x1="424.125" y1="165" x2="424.125" y2="185" stroke="#334155" stroke-width="2"/><text x="424.125" y="210" text-anchor="middle" class="small">436</text><line x1="427.6875" y1="165" x2="427.6875" y2="185" stroke="#334155" stroke-width="2"/><text x="427.6875" y="210" text-anchor="middle" class="small">437</text><line x1="431.25" y1="165" x2="431.25" y2="185" stroke="#334155" stroke-width="2"/><text x="431.25" y="210" text-anchor="middle" class="small">438</text><line x1="434.8125" y1="165" x2="434.8125" y2="185" stroke="#334155" stroke-width="2"/><text x="434.8125" y="210" text-anchor="middle" class="small">439</text><line x1="438.375" y1="165" x2="438.375" y2="185" stroke="#334155" stroke-width="2"/><text x="438.375" y="210" text-anchor="middle" class="small">440</text><line x1="441.9375" y1="165" x2="441.9375" y2="185" stroke="#334155" stroke-width="2"/><text x="441.9375" y="210" text-anchor="middle" class="small">441</text><line x1="445.5" y1="165" x2="445.5" y2="185" stroke="#334155" stroke-width="2"/><text x="445.5" y="210" text-anchor="middle" class="small">442</text><line x1="449.0625" y1="165" x2="449.0625" y2="185" stroke="#334155" stroke-width="2"/><text x="449.0625" y="210" text-anchor="middle" class="small">443</text><line x1="452.625" y1="165" x2="452.625" y2="185" stroke="#334155" stroke-width="2"/><text x="452.625" y="210" text-anchor="middle" class="small">444</text><line x1="456.1875" y1="165" x2="456.1875" y2="185" stroke="#334155" stroke-width="2"/><text x="456.1875" y="210" text-anchor="middle" class="small">445</text><line x1="459.75" y1="165" x2="459.75" y2="185" stroke="#334155" stroke-width="2"/><text x="459.75" y="210" text-anchor="middle" class="small">446</text><line x1="463.3125" y1="165" x2="463.3125" y2="185" stroke="#334155" stroke-width="2"/><text x="463.3125" y="210" text-anchor="middle" class="small">447</text><line x1="466.875" y1="165" x2="466.875" y2="185" stroke="#334155" stroke-width="2"/><text x="466.875" y="210" text-anchor="middle" class="small">448</text><line x1="470.4375" y1="165" x2="470.4375" y2="185" stroke="#334155" stroke-width="2"/><text x="470.4375" y="210" text-anchor="middle" class="small">449</text><line x1="474" y1="165" x2="474" y2="185" stroke="#334155" stroke-width="2"/><text x="474" y="210" text-anchor="middle" class="small">450</text><line x1="477.5625" y1="165" x2="477.5625" y2="185" stroke="#334155" stroke-width="2"/><text x="477.5625" y="210" text-anchor="middle" class="small">451</text><line x1="481.125" y1="165" x2="481.125" y2="185" stroke="#334155" stroke-width="2"/><text x="481.125" y="210" text-anchor="middle" class="small">452</text><line x1="484.6875" y1="165" x2="484.6875" y2="185" stroke="#334155" stroke-width="2"/><text x="484.6875" y="210" text-anchor="middle" class="small">453</text><line x1="488.25" y1="165" x2="488.25" y2="185" stroke="#334155" stroke-width="2"/><text x="488.25" y="210" text-anchor="middle" class="small">454</text><line x1="491.8125" y1="165" x2="491.8125" y2="185" stroke="#334155" stroke-width="2"/><text x="491.8125" y="210" text-anchor="middle" class="small">455</text><line x1="495.375" y1="165" x2="495.375" y2="185" stroke="#334155" stroke-width="2"/><text x="495.375" y="210" text-anchor="middle" class="small">456</text><line x1="498.9375" y1="165" x2="498.9375" y2="185" stroke="#334155" stroke-width="2"/><text x="498.9375" y="210" text-anchor="middle" class="small">457</text><line x1="502.5" y1="165" x2="502.5" y2="185" stroke="#334155" stroke-width="2"/><text x="502.5" y="210" text-anchor="middle" class="small">458</text><line x1="506.0625" y1="165" x2="506.0625" y2="185" stroke="#334155" stroke-width="2"/><text x="506.0625" y="210" text-anchor="middle" class="small">459</text><line x1="509.625" y1="165" x2="509.625" y2="185" stroke="#334155" stroke-width="2"/><text x="509.625" y="210" text-anchor="middle" class="small">460</text><line x1="513.1875" y1="165" x2="513.1875" y2="185" stroke="#334155" stroke-width="2"/><text x="513.1875" y="210" text-anchor="middle" class="small">461</text><line x1="516.75" y1="165" x2="516.75" y2="185" stroke="#334155" stroke-width="2"/><text x="516.75" y="210" text-anchor="middle" class="small">462</text><line x1="520.3125" y1="165" x2="520.3125" y2="185" stroke="#334155" stroke-width="2"/><text x="520.3125" y="210" text-anchor="middle" class="small">463</text><line x1="523.875" y1="165" x2="523.875" y2="185" stroke="#334155" stroke-width="2"/><text x="523.875" y="210" text-anchor="middle" class="small">464</text><line x1="527.4375" y1="165" x2="527.4375" y2="185" stroke="#334155" stroke-width="2"/><text x="527.4375" y="210" text-anchor="middle" class="small">465</text><line x1="531" y1="165" x2="531" y2="185" stroke="#334155" stroke-width="2"/><text x="531" y="210" text-anchor="middle" class="small">466</text><line x1="534.5625" y1="165" x2="534.5625" y2="185" stroke="#334155" stroke-width="2"/><text x="534.5625" y="210" text-anchor="middle" class="small">467</text><line x1="538.125" y1="165" x2="538.125" y2="185" stroke="#334155" stroke-width="2"/><text x="538.125" y="210" text-anchor="middle" class="small">468</text><line x1="541.6875" y1="165" x2="541.6875" y2="185" stroke="#334155" stroke-width="2"/><text x="541.6875" y="210" text-anchor="middle" class="small">469</text><line x1="545.25" y1="165" x2="545.25" y2="185" stroke="#334155" stroke-width="2"/><text x="545.25" y="210" text-anchor="middle" class="small">470</text><line x1="548.8125" y1="165" x2="548.8125" y2="185" stroke="#334155" stroke-width="2"/><text x="548.8125" y="210" text-anchor="middle" class="small">471</text><line x1="552.375" y1="165" x2="552.375" y2="185" stroke="#334155" stroke-width="2"/><text x="552.375" y="210" text-anchor="middle" class="small">472</text><line x1="555.9375" y1="165" x2="555.9375" y2="185" stroke="#334155" stroke-width="2"/><text x="555.9375" y="210" text-anchor="middle" class="small">473</text><line x1="559.5" y1="165" x2="559.5" y2="185" stroke="#334155" stroke-width="2"/><text x="559.5" y="210" text-anchor="middle" class="small">474</text><line x1="563.0625" y1="165" x2="563.0625" y2="185" stroke="#334155" stroke-width="2"/><text x="563.0625" y="210" text-anchor="middle" class="small">475</text><line x1="566.625" y1="165" x2="566.625" y2="185" stroke="#334155" stroke-width="2"/><text x="566.625" y="210" text-anchor="middle" class="small">476</text><line x1="570.1875" y1="165" x2="570.1875" y2="185" stroke="#334155" stroke-width="2"/><text x="570.1875" y="210" text-anchor="middle" class="small">477</text><line x1="573.75" y1="165" x2="573.75" y2="185" stroke="#334155" stroke-width="2"/><text x="573.75" y="210" text-anchor="middle" class="small">478</text><line x1="577.3125" y1="165" x2="577.3125" y2="185" stroke="#334155" stroke-width="2"/><text x="577.3125" y="210" text-anchor="middle" class="small">479</text><line x1="580.875" y1="165" x2="580.875" y2="185" stroke="#334155" stroke-width="2"/><text x="580.875" y="210" text-anchor="middle" class="small">480</text><line x1="584.4375" y1="165" x2="584.4375" y2="185" stroke="#334155" stroke-width="2"/><text x="584.4375" y="210" text-anchor="middle" class="small">481</text><line x1="588" y1="165" x2="588" y2="185" stroke="#334155" stroke-width="2"/><text x="588" y="210" text-anchor="middle" class="small">482</text><line x1="591.5625" y1="165" x2="591.5625" y2="185" stroke="#334155" stroke-width="2"/><text x="591.5625" y="210" text-anchor="middle" class="small">483</text><line x1="595.125" y1="165" x2="595.125" y2="185" stroke="#334155" stroke-width="2"/><text x="595.125" y="210" text-anchor="middle" class="small">484</text><line x1="598.6875" y1="165" x2="598.6875" y2="185" stroke="#334155" stroke-width="2"/><text x="598.6875" y="210" text-anchor="middle" class="small">485</text><line x1="602.25" y1="165" x2="602.25" y2="185" stroke="#334155" stroke-width="2"/><text x="602.25" y="210" text-anchor="middle" class="small">486</text><line x1="605.8125" y1="165" x2="605.8125" y2="185" stroke="#334155" stroke-width="2"/><text x="605.8125" y="210" text-anchor="middle" class="small">487</text><line x1="609.375" y1="165" x2="609.375" y2="185" stroke="#334155" stroke-width="2"/><text x="609.375" y="210" text-anchor="middle" class="small">488</text><line x1="612.9375" y1="165" x2="612.9375" y2="185" stroke="#334155" stroke-width="2"/><text x="612.9375" y="210" text-anchor="middle" class="small">489</text><line x1="616.5" y1="165" x2="616.5" y2="185" stroke="#334155" stroke-width="2"/><text x="616.5" y="210" text-anchor="middle" class="small">490</text><line x1="620.0625" y1="165" x2="620.0625" y2="185" stroke="#334155" stroke-width="2"/><text x="620.0625" y="210" text-anchor="middle" class="small">491</text><line x1="623.625" y1="165" x2="623.625" y2="185" stroke="#334155" stroke-width="2"/><text x="623.625" y="210" text-anchor="middle" class="small">492</text><line x1="627.1875" y1="165" x2="627.1875" y2="185" stroke="#334155" stroke-width="2"/><text x="627.1875" y="210" text-anchor="middle" class="small">493</text><line x1="630.75" y1="165" x2="630.75" y2="185" stroke="#334155" stroke-width="2"/><text x="630.75" y="210" text-anchor="middle" class="small">494</text><line x1="634.3125" y1="165" x2="634.3125" y2="185" stroke="#334155" stroke-width="2"/><text x="634.3125" y="210" text-anchor="middle" class="small">495</text><line x1="637.875" y1="165" x2="637.875" y2="185" stroke="#334155" stroke-width="2"/><text x="637.875" y="210" text-anchor="middle" class="small">496</text><line x1="641.4375" y1="165" x2="641.4375" y2="185" stroke="#334155" stroke-width="2"/><text x="641.4375" y="210" text-anchor="middle" class="small">497</text><line x1="645" y1="165" x2="645" y2="185" stroke="#334155" stroke-width="2"/><text x="645" y="210" text-anchor="middle" class="small">498</text><circle cx="75" cy="150" r="10" fill="#2563EB"/><circle cx="217.5" cy="150" r="10" fill="#F59E0B"/><circle cx="360" cy="150" r="10" fill="#10B981"/><circle cx="502.5" cy="150" r="10" fill="#EF4444"/></svg>