<svg xmlns="http://www.w3.org/2000/svg" viewBox="0 0 720 300" role="img" aria-labelledby="title desc"><title id="title">Ritmik sayma</title><desc id="desc">3. sınıf orta: 225den başlayıp 25er sayarken sıradaki sayı kaçtır: 225, 250, 275, ?</desc><style>.title{font:700 24px Arial,sans-serif;fill:#1E3A8A}.label{font:600 15px Arial,sans-serif;fill:#334155}.small{font:500 14px Arial,sans-serif;fill:#475569}.value{font:700 17px Arial,sans-serif;fill:#1E293B}.coin{font:700 18px Arial,sans-serif;fill:#92400E}.equation{font:700 36px Arial,sans-serif;fill:#1E3A8A}</style><rect width="720" height="300" rx="24" fill="#F8FAFC"/><rect x="18" y="18" width="684" height="264" rx="20" fill="#fff" stroke="#DBEAFE" stroke-width="3"/><text x="360" y="65" text-anchor="middle" class="title">Ritmik sayma</text><line x1="75" y1="175" x2="645" y2="175" stroke="#334155" stroke-width="4"/><line x1="75" y1="165" x2="75" y2="185" stroke="#334155" stroke-width="2"/><text x="75" y="210" text-anchor="middle" class="small">225</text><line x1="80.7" y1="165" x2="80.7" y2="185" stroke="#334155" stroke-width="2"/><text x="80.7" y="210" text-anchor="middle" class="small">226</text><line x1="86.4" y1="165" x2="86.4" y2="185" stroke="#334155" stroke-width="2"/><text x="86.4" y="210" text-anchor="middle" class="small">227</text><line x1="92.1" y1="165" x2="92.1" y2="185" stroke="#334155" stroke-width="2"/><text x="92.1" y="210" text-anchor="middle" class="small">228</text><line x1="97.8" y1="165" x2="97.8" y2="185" stroke="#334155" stroke-width="2"/><text x="97.8" y="210" text-anchor="middle" class="small">229</text><line x1="103.5" y1="165" x2="103.5" y2="185" stroke="#334155" stroke-width="2"/><text x="103.5" y="210" text-anchor="middle" class="small">230</text><line x1="109.2" y1="165" x2="109.2" y2="185" stroke="#334155" stroke-width="2"/><text x="109.2" y="210" text-anchor="middle" class="small">231</text><line x1="114.9" y1="165" x2="114.9" y2="185" stroke="#334155" stroke-width="2"/><text x="114.9" y="210" text-anchor="middle" class="small">232</text><line x1="120.6" y1="165" x2="120.6" y2="185" stroke="#334155" stroke-width="2"/><text x="120.6" y="210" text-anchor="middle" class="small">233</text><line x1="126.3" y1="165" x2="126.3" y2="185" stroke="#334155" stroke-width="2"/><text x="126.3" y="210" text-anchor="middle" class="small">234</text><line x1="132" y1="165" x2="132" y2="185" stroke="#334155" stroke-width="2"/><text x="132" y="210" text-anchor="middle" class="small">235</text><line x1="137.7" y1="165" x2="137.7" y2="185" stroke="#334155" stroke-width="2"/><text x="137.7" y="210" text-anchor="middle" class="small">236</text><line x1="143.4" y1="165" x2="143.4" y2="185" stroke="#334155" stroke-width="2"/><text x="143.4" y="210" text-anchor="middle" class="small">237</text><line x1="149.1" y1="165" x2="149.1" y2="185" stroke="#334155" stroke-width="2"/><text x="149.1" y="210" text-anchor="middle" class="small">238</text><line x1="154.8" y1="165" x2="154.8" y2="185" stroke="#334155" stroke-width="2"/><text x="154.8" y="210" text-anchor="middle" class="small">239</text><line x1="160.5" y1="165" x2="160.5" y2="185" stroke="#334155" stroke-width="2"/><text x="160.5" y="210" text-anchor="middle" class="small">240</text><line x1="166.2" y1="165" x2="166.2" y2="185" stroke="#334155" stroke-width="2"/><text x="166.2" y="210" text-anchor="middle" class="small">241</text><line x1="171.9" y1="165" x2="171.9" y2="185" stroke="#334155" stroke-width="2"/><text x="171.9" y="210" text-anchor="middle" class="small">242</text><line x1="177.6" y1="165" x2="177.6" y2="185" stroke="#334155" stroke-width="2"/><text x="177.6" y="210" text-anchor="middle" class="small">243</text><line x1="183.3" y1="165" x2="183.3" y2="185" stroke="#334155" stroke-width="2"/><text x="183.3" y="210" text-anchor="middle" class="small">244</text><line x1="189" y1="165" x2="189" y2="185" stroke="#334155" stroke-width="2"/><text x="189" y="210" text-anchor="middle" class="small">245</text><line x1="194.7" y1="165" x2="194.7" y2="185" stroke="#334155" stroke-width="2"/><text x="194.7" y="210" text-anchor="middle" class="small">246</text><line x1="200.4" y1="165" x2="200.4" y2="185" stroke="#334155" stroke-width="2"/><text x="200.4" y="210" text-anchor="middle" class="small">247</text><line x1="206.1" y1="165" x2="206.1" y2="185" stroke="#334155" stroke-width="2"/><text x="206.1" y="210" text-anchor="middle" class="small">248</text><line x1="211.8" y1="165" x2="211.8" y2="185" stroke="#334155" stroke-width="2"/><text x="211.8" y="210" text-anchor="middle" class="small">249</text><line x1="217.5" y1="165" x2="217.5" y2="185" stroke="#334155" stroke-width="2"/><text x="217.5" y="210" text-anchor="middle" class="small">250</text><line x1="223.2" y1="165" x2="223.2" y2="185" stroke="#334155" stroke-width="2"/><text x="223.2" y="210" text-anchor="middle" class="small">251</text><line x1="228.9" y1="165" x2="228.9" y2="185" stroke="#334155" stroke-width="2"/><text x="228.9" y="210" text-anchor="middle" class="small">252</text><line x1="234.6" y1="165" x2="234.6" y2="185" stroke="#334155" stroke-width="2"/><text x="234.6" y="210" text-anchor="middle" class="small">253</text><line x1="240.3" y1="165" x2="240.3" y2="185" stroke="#334155" stroke-width="2"/><text x="240.3" y="210" text-anchor="middle" class="small">254</text><line x1="246" y1="165" x2="246" y2="185" stroke="#334155" stroke-width="2"/><text x="246" y="210" text-anchor="middle" class="small">255</text><line x1="251.7" y1="165" x2="251.7" y2="185" stroke="#334155" stroke-width="2"/><text x="251.7" y="210" text-anchor="middle" class="small">256</text><line x1="257.4" y1="165" x2="257.4" y2="185" stroke="#334155" stroke-width="2"/><text x="257.4" y="210" text-anchor="middle" class="small">257</text><line x1="263.1" y1="165" x2="263.1" y2="185" stroke="#334155" stroke-width="2"/><text x="263.1" y="210" text-anchor="middle" class="small">258</text><line x1="268.8" y1="165" x2="268.8" y2="185" stroke="#334155" stroke-width="2"/><text x="268.8" y="210" text-anchor="middle" class="small">259</text><line x1="274.5" y1="165" x2="274.5" y2="185" stroke="#334155" stroke-width="2"/><text x="274.5" y="210" text-anchor="middle" class="small">260</text><line x1="280.2" y1="165" x2="280.2" y2="185" stroke="#334155" stroke-width="2"/><text x="280.2" y="210" text-anchor="middle" class="small">261</text><line x1="285.9" y1="165" x2="285.9" y2="185" stroke="#334155" stroke-width="2"/><text x="285.9" y="210" text-anchor="middle" class="small">262</text><line x1="291.6" y1="165" x2="291.6" y2="185" stroke="#334155" stroke-width="2"/><text x="291.6" y="210" text-anchor="middle" class="small">263</text><line x1="297.3" y1="165" x2="297.3" y2="185" stroke="#334155" stroke-width="2"/><text x="297.3" y="210" text-anchor="middle" class="small">264</text><line x1="303" y1="165" x2="303" y2="185" stroke="#334155" stroke-width="2"/><text x="303" y="210" text-anchor="middle" class="small">265</text><line x1="308.7" y1="165" x2="308.7" y2="185" stroke="#334155" stroke-width="2"/><text x="308.7" y="210" text-anchor="middle" class="small">266</text><line x1="314.4" y1="165" x2="314.4" y2="185" stroke="#334155" stroke-width="2"/><text x="314.4" y="210" text-anchor="middle" class="small">267</text><line x1="320.1" y1="165" x2="320.1" y2="185" stroke="#334155" stroke-width="2"/><text x="320.1" y="210" text-anchor="middle" class="small">268</text><line x1="325.8" y1="165" x2="325.8" y2="185" stroke="#334155" stroke-width="2"/><text x="325.8" y="210" text-anchor="middle" class="small">269</text><line x1="331.5" y1="165" x2="331.5" y2="185" stroke="#334155" stroke-width="2"/><text x="331.5" y="210" text-anchor="middle" class="small">270</text><line x1="337.2" y1="165" x2="337.2" y2="185" stroke="#334155" stroke-width="2"/><text x="337.2" y="210" text-anchor="middle" class="small">271</text><line x1="342.9" y1="165" x2="342.9" y2="185" stroke="#334155" stroke-width="2"/><text x="342.9" y="210" text-anchor="middle" class="small">272</text><line x1="348.6" y1="165" x2="348.6" y2="185" stroke="#334155" stroke-width="2"/><text x="348.6" y="210" text-anchor="middle" class="small">273</text><line x1="354.3" y1="165" x2="354.3" y2="185" stroke="#334155" stroke-width="2"/><text x="354.3" y="210" text-anchor="middle" class="small">274</text><line x1="360" y1="165" x2="360" y2="185" stroke="#334155" stroke-width="2"/><text x="360" y="210" text-anchor="middle" class="small">275</text><line x1="365.7" y1="165" x2="365.7" y2="185" stroke="#334155" stroke-width="2"/><text x="365.7" y="210" text-anchor="middle" class="small">276</text><line x1="371.4" y1="165" x2="371.4" y2="185" stroke="#334155" stroke-width="2"/><text x="371.4" y="210" text-anchor="middle" class="small">277</text><line x1="377.1" y1="165" x2="377.1" y2="185" stroke="#334155" stroke-width="2"/><text x="377.1" y="210" text-anchor="middle" class="small">278</text><line x1="382.8" y1="165" x2="382.8" y2="185" stroke="#334155" stroke-width="2"/><text x="382.8" y="210" text-anchor="middle" class="small">279</text><line x1="388.5" y1="165" x2="388.5" y2="185" stroke="#334155" stroke-width="2"/><text x="388.5" y="210" text-anchor="middle" class="small">280</text><line x1="394.2" y1="165" x2="394.2" y2="185" stroke="#334155" stroke-width="2"/><text x="394.2" y="210" text-anchor="middle" class="small">281</text><line x1="399.9" y1="165" x2="399.9" y2="185" stroke="#334155" stroke-width="2"/><text x="399.9" y="210" text-anchor="middle" class="small">282</text><line x1="405.6" y1="165" x2="405.6" y2="185" stroke="#334155" stroke-width="2"/><text x="405.6" y="210" text-anchor="middle" class="small">283</text><line x1="411.3" y1="165" x2="411.3" y2="185" stroke="#334155" stroke-width="2"/><text x="411.3" y="210" text-anchor="middle" class="small">284</text><line x1="417" y1="165" x2="417" y2="185" stroke="#334155" stroke-width="2"/><text x="417" y="210" text-anchor="middle" class="small">285</text><line x1="422.7" y1="165" x2="422.7" y2="185" stroke="#334155" stroke-width="2"/><text x="422.7" y="210" text-anchor="middle" class="small">286</text><line x1="428.4" y1="165" x2="428.4" y2="185" stroke="#334155" stroke-width="2"/><text x="428.4" y="210" text-anchor="middle" class="small">287</text><line x1="434.1" y1="165" x2="434.1" y2="185" stroke="#334155" stroke-width="2"/><text x="434.1" y="210" text-anchor="middle" class="small">288</text><line x1="439.8" y1="165" x2="439.8" y2="185" stroke="#334155" stroke-width="2"/><text x="439.8" y="210" text-anchor="middle" class="small">289</text><line x1="445.5" y1="165" x2="445.5" y2="185" stroke="#334155" stroke-width="2"/><text x="445.5" y="210" text-anchor="middle" class="small">290</text><line x1="451.2" y1="165" x2="451.2" y2="185" stroke="#334155" stroke-width="2"/><text x="451.2" y="210" text-anchor="middle" class="small">291</text><line x1="456.9" y1="165" x2="456.9" y2="185" stroke="#334155" stroke-width="2"/><text x="456.9" y="210" text-anchor="middle" class="small">292</text><line x1="462.6" y1="165" x2="462.6" y2="185" stroke="#334155" stroke-width="2"/><text x="462.6" y="210" text-anchor="middle" class="small">293</text><line x1="468.3" y1="165" x2="468.3" y2="185" stroke="#334155" stroke-width="2"/><text x="468.3" y="210" text-anchor="middle" class="small">294</text><line x1="474" y1="165" x2="474" y2="185" stroke="#334155" stroke-width="2"/><text x="474" y="210" text-anchor="middle" class="small">295</text><line x1="479.7" y1="165" x2="479.7" y2="185" stroke="#334155" stroke-width="2"/><text x="479.7" y="210" text-anchor="middle" class="small">296</text><line x1="485.4" y1="165" x2="485.4" y2="185" stroke="#334155" stroke-width="2"/><text x="485.4" y="210" text-anchor="middle" class="small">297</text><line x1="491.1" y1="165" x2="491.1" y2="185" stroke="#334155" stroke-width="2"/><text x="491.1" y="210" text-anchor="middle" class="small">298</text><line x1="496.8" y1="165" x2="496.8" y2="185" stroke="#334155" stroke-width="2"/><text x="496.8" y="210" text-anchor="middle" class="small">299</text><line x1="502.5" y1="165" x2="502.5" y2="185" stroke="#334155" stroke-width="2"/><text x="502.5" y="210" text-anchor="middle" class="small">300</text><line x1="508.2" y1="165" x2="508.2" y2="185" stroke="#334155" stroke-width="2"/><text x="508.2" y="210" text-anchor="middle" class="small">301</text><line x1="513.9" y1="165" x2="513.9" y2="185" stroke="#334155" stroke-width="2"/><text x="513.9" y="210" text-anchor="middle" class="small">302</text><line x1="519.6" y1="165" x2="519.6" y2="185" stroke="#334155" stroke-width="2"/><text x="519.6" y="210" text-anchor="middle" class="small">303</text><line x1="525.3" y1="165" x2="525.3" y2="185" stroke="#334155" stroke-width="2"/><text x="525.3" y="210" text-anchor="middle" class="small">304</text><line x1="531" y1="165" x2="531" y2="185" stroke="#334155" stroke-width="2"/><text x="531" y="210" text-anchor="middle" class="small">305</text><line x1="536.7" y1="165" x2="536.7" y2="185" stroke="#334155" stroke-width="2"/><text x="536.7" y="210" text-anchor="middle" class="small">306</text><line x1="542.4" y1="165" x2="542.4" y2="185" stroke="#334155" stroke-width="2"/><text x="542.4" y="210" text-anchor="middle" class="small">307</text><line x1="548.1" y1="165" x2="548.1" y2="185" stroke="#334155" stroke-width="2"/><text x="548.1" y="210" text-anchor="middle" class="small">308</text><line x1="553.8" y1="165" x2="553.8" y2="185" stroke="#334155" stroke-width="2"/><text x="553.8" y="210" text-anchor="middle" class="small">309</text><line x1="559.5" y1="165" x2="559.5" y2="185" stroke="#334155" stroke-width="2"/><text x="559.5" y="210" text-anchor="middle" class="small">310</text><line x1="565.2" y1="165" x2="565.2" y2="185" stroke="#334155" stroke-width="2"/><text x="565.2" y="210" text-anchor="middle" class="small">311</text><line x1="570.9" y1="165" x2="570.9" y2="185" stroke="#334155" stroke-width="2"/><text x="570.9" y="210" text-anchor="middle" class="small">312</text><line x1="576.6" y1="165" x2="576.6" y2="185" stroke="#334155" stroke-width="2"/><text x="576.6" y="210" text-anchor="middle" class="small">313</text><line x1="582.3" y1="165" x2="582.3" y2="185" stroke="#334155" stroke-width="2"/><text x="582.3" y="210" text-anchor="middle" class="small">314</text><line x1="588" y1="165" x2="588" y2="185" stroke="#334155" stroke-width="2"/><text x="588" y="210" text-anchor="middle" class="small">315</text><line x1="593.7" y1="165" x2="593.7" y2="185" stroke="#334155" stroke-width="2"/><text x="593.7" y="210" text-anchor="middle" class="small">316</text><line x1="599.4" y1="165" x2="599.4" y2="185" stroke="#334155" stroke-width="2"/><text x="599.4" y="210" text-anchor="middle" class="small">317</text><line x1="605.1" y1="165" x2="605.1" y2="185" stroke="#334155" stroke-width="2"/><text x="605.1" y="210" text-anchor="middle" class="small">318</text><line x1="610.8" y1="165" x2="610.8" y2="185" stroke="#334155" stroke-width="2"/><text x="610.8" y="210" text-anchor="middle" class="small">319</text><line x1="616.5" y1="165" x2="616.5" y2="185" stroke="#334155" stroke-width="2"/><text x="616.5" y="210" text-anchor="middle" class="small">320</text><line x1="622.2" y1="165" x2="622.2" y2="185" stroke="#334155" stroke-width="2"/><text x="622.2" y="210" text-anchor="middle" class="small">321</text><line x1="627.9" y1="165" x2="627.9" y2="185" stroke="#334155" stroke-width="2"/><text x="627.9" y="210" text-anchor="middle" class="small">322</text><line x1="633.6" y1="165" x2="633.6" y2="185" stroke="#334155" stroke-width="2"/><text x="633.6" y="210" text-anchor="middle" class="small">323</text><line x1="639.3" y1="165" x2="639.3" y2="185" stroke="#334155" stroke-width="2"/><text x="639.3" y="210" text-anchor="middle" class="small">324</text><line x1="645" y1="165" x2="645" y2="185" stroke="#334155" stroke-width="2"/><text x="645" y="210" text-anchor="middle" class="small">325</text><circle cx="75" cy="150" r="10" fill="#2563EB"/><circle cx="217.5" cy="150" r="10" fill="#F59E0B"/><circle cx="360" cy="150" r="10" fill="#10B981"/><circle cx="502.5" cy="150" r="10" fill="#EF4444"/></svg>