<svg xmlns="http://www.w3.org/2000/svg" viewBox="0 0 720 390" role="img" aria-labelledby="title desc"><title id="title">Günlük yaşamda hareket</title><desc id="desc">Aşağıdaki görsellerin hangisinde cisme uygulanan kuvvetin türü &quot;ÇEKME&quot; kuvvetidir?</desc><style>.title{font:700 24px Arial,sans-serif;fill:#1E3A8A}.label{font:600 15px Arial,sans-serif;fill:#334155}.small{font:500 14px Arial,sans-serif;fill:#475569}.value{font:700 17px Arial,sans-serif;fill:#1E293B}.coin{font:700 18px Arial,sans-serif;fill:#92400E}.equation{font:700 36px Arial,sans-serif;fill:#1E3A8A}</style><rect width="720" height="390" rx="24" fill="#F8FAFC"/><rect x="18" y="18" width="684" height="354" rx="20" fill="#fff" stroke="#DBEAFE" stroke-width="3"/><text x="360" y="65" text-anchor="middle" class="title">Günlük yaşamda hareket</text><rect x="160" y="235" width="50" height="50" rx="5" fill="#a16207" stroke="#475569" stroke-width="2"/><circle cx="110" cy="140" r="22" fill="#fed7aa"/><path d="M88 134q0 -34 43 0" fill="#713f12" stroke="none" stroke-width="3" stroke-linecap="round" stroke-linejoin="round"/><circle cx="103" cy="140" r="2" fill="#111827"/><circle cx="117" cy="140" r="2" fill="#111827"/><path d="M102 152q8 9 16 0" fill="none" stroke="#9a3412" stroke-width="2" stroke-linecap="round" stroke-linejoin="round"/><rect x="87" y="165" width="46" height="58" rx="5" fill="#2563eb" stroke="#475569" stroke-width="2"/><path d="M97 223l-10 45m35-45l14 45M88 176l-33 30m78-30l35 28" fill="none" stroke="#334155" stroke-width="9" stroke-linecap="round" stroke-linejoin="round"/><path d="M130 205L180 245" fill="none" stroke="#713f12" stroke-width="4" stroke-linecap="round" stroke-linejoin="round"/><text x="145" y="340" text-anchor="middle" font-family="Arial" font-size="19" fill="#1e293b">A</text><circle cx="350" cy="140" r="22" fill="#fed7aa"/><path d="M328 134q0 -34 43 0" fill="#713f12" stroke="none" stroke-width="3" stroke-linecap="round" stroke-linejoin="round"/><circle cx="343" cy="140" r="2" fill="#111827"/><circle cx="357" cy="140" r="2" fill="#111827"/><path d="M342 152q8 9 16 0" fill="none" stroke="#9a3412" stroke-width="2" stroke-linecap="round" stroke-linejoin="round"/><rect x="327" y="165" width="46" height="58" rx="5" fill="#2563eb" stroke="#475569" stroke-width="2"/><path d="M337 223l-10 45m35-45l14 45M328 176l-33 30m78-30l35 28" fill="none" stroke="#334155" stroke-width="9" stroke-linecap="round" stroke-linejoin="round"/><rect x="405" y="215" width="65" height="40" rx="5" fill="#dbeafe" stroke="#475569" stroke-width="2"/><circle cx="420" cy="270" r="12" fill="#334155"/><circle cx="460" cy="270" r="12" fill="#334155"/><text x="385" y="340" text-anchor="middle" font-family="Arial" font-size="19" fill="#1e293b">B</text><rect x="560" y="130" width="65" height="90" rx="5" fill="#e2e8f0" stroke="#475569" stroke-width="2"/><rect x="580" y="150" width="25" height="40" rx="5" fill="#94a3b8" stroke="#475569" stroke-width="2"/><path d="M530 200L590 175" fill="none" stroke="#fed7aa" stroke-width="14" stroke-linecap="round" stroke-linejoin="round"/><text x="595" y="340" text-anchor="middle" font-family="Arial" font-size="19" fill="#1e293b">C</text></svg>